<?xml version="1.0" encoding="utf-8"?>
<!-- Generator: Adobe Illustrator 16.0.0, SVG Export Plug-In . SVG Version: 6.00 Build 0)  -->
<!DOCTYPE svg PUBLIC "-//W3C//DTD SVG 1.1//EN" "http://www.w3.org/Graphics/SVG/1.1/DTD/svg11.dtd">
<svg version="1.1" id="Calque_1" xmlns="http://www.w3.org/2000/svg" xmlns:xlink="http://www.w3.org/1999/xlink" x="0px" y="0px"
	 width="300px" height="306px" viewBox="0 0 300 306" enable-background="new 0 0 300 306" xml:space="preserve">
<rect x="51.477" y="55.582" fill="none" stroke="#000000" stroke-width="2.384" stroke-linejoin="round" width="199.133" height="199.129"/>
<polygon fill="none" stroke="#000000" stroke-width="2.384" stroke-linejoin="round" points="151.042,14.34 291.852,155.149 
	151.042,295.957 10.239,155.149 "/>
<line fill="none" stroke="#000000" stroke-width="2.384" stroke-linejoin="round" x1="51.477" y1="55.582" x2="10.234" y2="155.149"/>
<line fill="none" stroke="#000000" stroke-width="2.384" stroke-linejoin="round" x1="291.852" y1="155.149" x2="250.609" y2="254.715"/>
<line fill="none" stroke="#000000" stroke-width="2.384" stroke-linejoin="round" x1="51.477" y1="254.715" x2="151.042" y2="295.957"/>
<line fill="none" stroke="#000000" stroke-width="2.384" stroke-linejoin="round" x1="151.042" y1="14.34" x2="250.613" y2="55.582"/>
<line fill="none" stroke="#000000" stroke-width="2.384" stroke-linejoin="round" x1="250.609" y1="254.715" x2="151.042" y2="295.957"/>
<line fill="none" stroke="#000000" stroke-width="2.384" stroke-linejoin="round" x1="151.042" y1="14.34" x2="51.477" y2="55.582"/>
<line fill="none" stroke="#000000" stroke-width="2.384" stroke-linejoin="round" x1="250.609" y1="55.582" x2="291.852" y2="155.149"/>
<line fill="none" stroke="#000000" stroke-width="2.384" stroke-linejoin="round" x1="10.234" y1="155.149" x2="51.477" y2="254.715"/>
<line fill="none" stroke="#000000" stroke-width="2.384" stroke-linejoin="round" x1="250.609" y1="254.715" x2="51.48" y2="55.582"/>
<line fill="none" stroke="#000000" stroke-width="2.384" stroke-linejoin="round" x1="250.609" y1="55.582" x2="51.48" y2="254.715"/>
<polygon fill="none" stroke="#000000" stroke-width="2.384" stroke-linejoin="round" points="10.234,155.149 250.609,254.715 
	151.042,14.34 51.477,254.715 291.852,155.149 51.477,55.582 151.042,295.957 250.609,55.582 "/>
<line fill="none" stroke="#FFFFFF" stroke-width="5" stroke-linejoin="round" x1="249.827" y1="55.686" x2="52.268" y2="55.651"/>
<polyline fill="none" stroke="#FFFFFF" stroke-width="5" stroke-linecap="round" stroke-linejoin="round" points="290.539,155.149 
	52.267,55.651 51.48,254.001 249.828,55.686 151.046,295.243 52.267,55.651 250.614,254.036 249.828,55.686 11.539,155.149 "/>
</svg>
